<svg width="40" height="47" viewBox="0 0 40 47" fill="none" xmlns="http://www.w3.org/2000/svg">
<path d="M11.3899 9.17936H26.1695C26.9153 9.17936 27.5255 8.48512 27.5255 7.63661V4.55111C27.5255 2.00557 25.695 0 23.5255 0H14.1017C11.8645 0 10.1017 2.08271 10.1017 4.55111V7.63661C10.0339 8.48512 10.6441 9.17936 11.3899 9.17936Z" fill="#D301FA"/>
<path d="M33.5593 3.77972H32.2034C31.7966 3.77972 31.5254 4.08827 31.5254 4.5511V7.6366C31.5254 11.0306 29.0847 13.7305 26.1695 13.7305H11.3898C8.40678 13.7305 6.0339 10.9535 6.0339 7.6366V4.5511C6.0339 4.08827 5.76271 3.77972 5.35593 3.77972H4C1.76271 3.77972 0 5.86244 0 8.33083V39.6487C0 42.1942 1.83051 44.1998 4 44.1998H17.5593C19.4576 44.1998 19.661 42.4256 19.661 41.8085V25.3011C19.661 23.5269 20.5424 23.1412 21.0169 23.1412H35.661C37.2881 23.1412 37.5593 21.5213 37.5593 20.9814V8.48511C37.6271 5.86244 35.7966 3.77972 33.5593 3.77972Z" fill="#D301FA"/>
<path d="M39.2542 31.1635H24.4746C24.0678 31.1635 23.7288 30.7778 23.7288 30.315V28.618C23.7288 28.1552 24.0678 27.7695 24.4746 27.7695H39.2542C39.661 27.7695 40 28.1552 40 28.618V30.315C40 30.7778 39.661 31.1635 39.2542 31.1635ZM39.2542 38.723H24.4746C24.0678 38.723 23.7288 38.3373 23.7288 37.8745V36.1775C23.7288 35.7146 24.0678 35.3289 24.4746 35.3289H39.2542C39.661 35.3289 40 35.7146 40 36.1775V37.8745C40 38.3373 39.661 38.723 39.2542 38.723ZM39.2542 46.2825H24.4746C24.0678 46.2825 23.7288 45.8968 23.7288 45.434V43.7369C23.7288 43.2741 24.0678 42.8884 24.4746 42.8884H39.2542C39.661 42.8884 40 43.2741 40 43.7369V45.434C40 45.8968 39.661 46.2825 39.2542 46.2825Z" fill="#D301FA"/>
</svg>
